<svg xmlns="http://www.w3.org/2000/svg" xmlns:xlink="http://www.w3.org/1999/xlink" contentStyleType="text/css" data-diagram-type="ACTIVITY" height="968px" preserveAspectRatio="none" style="width:655px;height:968px;background:#FFFFFF;" version="1.1" viewBox="0 0 655 968" width="655px" zoomAndPan="magnify"><defs/><g><ellipse cx="313.6843" cy="20" fill="#222222" rx="10" ry="10" style="stroke:#222222;stroke-width:1;"/><rect fill="#F1F1F1" height="33.9688" rx="12.5" ry="12.5" style="stroke:#181818;stroke-width:0.5;" width="225.6582" x="200.8552" y="50"/><text fill="#000000" font-family="sans-serif" font-size="12" lengthAdjust="spacing" textLength="205.6582" x="210.8552" y="71.1387">Initialize target as randomPosition</text><rect fill="#F1F1F1" height="33.9688" rx="12.5" ry="12.5" style="stroke:#181818;stroke-width:0.5;" width="207.2363" x="210.0662" y="103.9688"/><text fill="#000000" font-family="sans-serif" font-size="12" lengthAdjust="spacing" textLength="187.2363" x="220.0662" y="125.1074">Iterate over each obj in objects</text><rect fill="#F1F1F1" height="33.9688" rx="12.5" ry="12.5" style="stroke:#181818;stroke-width:0.5;" width="170.9727" x="228.198" y="254.7422"/><text fill="#000000" font-family="sans-serif" font-size="12" lengthAdjust="spacing" textLength="150.9727" x="238.198" y="275.8809">Set target = obj.Location</text><polygon fill="#F1F1F1" points="247.1042,206.3398,380.2644,206.3398,392.2644,218.3398,380.2644,230.3398,247.1042,230.3398,235.1042,218.3398,247.1042,206.3398" style="stroke:#181818;stroke-width:0.5;"/><text fill="#000000" font-family="sans-serif" font-size="11" lengthAdjust="spacing" textLength="19.0083" x="317.6843" y="240.5503">yes</text><text fill="#000000" font-family="sans-serif" font-size="11" lengthAdjust="spacing" textLength="133.1602" x="247.1042" y="222.1479">obj within VisionRadius?</text><polygon fill="#F1F1F1" points="313.6843,308.7109,325.6843,320.7109,313.6843,332.7109,301.6843,320.7109,313.6843,308.7109" style="stroke:#181818;stroke-width:0.5;"/><polygon fill="#F1F1F1" points="73.5374,157.9375,553.8313,157.9375,565.8313,169.9375,553.8313,181.9375,73.5374,181.9375,61.5374,169.9375,73.5374,157.9375" style="stroke:#181818;stroke-width:0.5;"/><text fill="#000000" font-family="sans-serif" font-size="11" lengthAdjust="spacing" textLength="19.0083" x="317.6843" y="192.1479">yes</text><text fill="#000000" font-family="sans-serif" font-size="11" lengthAdjust="spacing" textLength="480.2939" x="73.5374" y="173.7456">obj is Meat &amp; this is Carnivore | obj is Plant &amp; this is Herbivore &amp; Energy &lt; maxEnergy?</text><polygon fill="#F1F1F1" points="313.6843,352.7109,325.6843,364.7109,313.6843,376.7109,301.6843,364.7109,313.6843,352.7109" style="stroke:#181818;stroke-width:0.5;"/><rect fill="#F1F1F1" height="33.9688" rx="12.5" ry="12.5" style="stroke:#181818;stroke-width:0.5;" width="159.6934" x="233.8376" y="445.1133"/><text fill="#000000" font-family="sans-serif" font-size="12" lengthAdjust="spacing" textLength="139.6934" x="243.8376" y="466.252">Cast obj as Animal (an)</text><rect fill="#F1F1F1" height="33.9688" rx="12.5" ry="12.5" style="stroke:#181818;stroke-width:0.5;" width="167.6387" x="229.865" y="597.4961"/><text fill="#000000" font-family="sans-serif" font-size="12" lengthAdjust="spacing" textLength="147.6387" x="239.865" y="618.6348">Set target = an.Location</text><polygon fill="#F1F1F1" points="248.6323,549.0938,378.7363,549.0938,390.7363,561.0938,378.7363,573.0938,248.6323,573.0938,236.6323,561.0938,248.6323,549.0938" style="stroke:#181818;stroke-width:0.5;"/><text fill="#000000" font-family="sans-serif" font-size="11" lengthAdjust="spacing" textLength="19.0083" x="317.6843" y="583.3042">yes</text><text fill="#000000" font-family="sans-serif" font-size="11" lengthAdjust="spacing" textLength="130.104" x="248.6323" y="564.9019">an within VisionRadius?</text><polygon fill="#F1F1F1" points="313.6843,651.4648,325.6843,663.4648,313.6843,675.4648,301.6843,663.4648,313.6843,651.4648" style="stroke:#181818;stroke-width:0.5;"/><polygon fill="#F1F1F1" points="32,499.082,595.3687,499.082,607.3687,511.8867,595.3687,524.6914,32,524.6914,20,511.8867,32,499.082" style="stroke:#181818;stroke-width:0.5;"/><text fill="#000000" font-family="sans-serif" font-size="11" lengthAdjust="spacing" textLength="19.0083" x="317.6843" y="534.9019">yes</text><text fill="#000000" font-family="sans-serif" font-size="11" lengthAdjust="spacing" textLength="204.3325" x="32" y="509.2925">(this is Carnivore &amp; an is Herbivore) |</text><text fill="#000000" font-family="sans-serif" font-size="11" lengthAdjust="spacing" textLength="535.396" x="59.9727" y="522.0972">(this.GetType == an.GetType &amp; CanReproduce() &amp; an.CanReproduce() &amp; Gender != an.Gender)?</text><polygon fill="#F1F1F1" points="313.6843,695.4648,325.6843,707.4648,313.6843,719.4648,301.6843,707.4648,313.6843,695.4648" style="stroke:#181818;stroke-width:0.5;"/><polygon fill="#F1F1F1" points="275.4583,396.7109,351.9104,396.7109,363.9104,408.7109,351.9104,420.7109,275.4583,420.7109,263.4583,408.7109,275.4583,396.7109" style="stroke:#181818;stroke-width:0.5;"/><text fill="#000000" font-family="sans-serif" font-size="11" lengthAdjust="spacing" textLength="19.0083" x="317.6843" y="430.9214">yes</text><text fill="#000000" font-family="sans-serif" font-size="11" lengthAdjust="spacing" textLength="76.4521" x="275.4583" y="412.519">obj is Animal?</text><polygon fill="#F1F1F1" points="313.6843,739.4648,325.6843,751.4648,313.6843,763.4648,301.6843,751.4648,313.6843,739.4648" style="stroke:#181818;stroke-width:0.5;"/><rect fill="#F1F1F1" height="33.9688" rx="12.5" ry="12.5" style="stroke:#181818;stroke-width:0.5;" width="250.0156" x="188.6765" y="783.4648"/><text fill="#000000" font-family="sans-serif" font-size="12" lengthAdjust="spacing" textLength="230.0156" x="198.6765" y="804.6035">Calculate direction = target - Location</text><polygon fill="#F1F1F1" points="220.7,837.4336,406.6687,837.4336,418.6687,849.4336,406.6687,861.4336,220.7,861.4336,208.7,849.4336,220.7,837.4336" style="stroke:#181818;stroke-width:0.5;"/><text fill="#000000" font-family="sans-serif" font-size="11" lengthAdjust="spacing" textLength="185.9688" x="220.7" y="853.2417">direction.X &lt; 1 &amp; direction.Y &lt; 1?</text><text fill="#000000" font-family="sans-serif" font-size="11" lengthAdjust="spacing" textLength="19.0083" x="418.6687" y="846.8394">yes</text><ellipse cx="459.677" cy="849.4336" fill="none" rx="11" ry="11" style="stroke:#222222;stroke-width:1;"/><ellipse cx="459.677" cy="849.4336" fill="#222222" rx="6" ry="6" style="stroke:#222222;stroke-width:1;"/><rect fill="#F1F1F1" height="33.9688" rx="12.5" ry="12.5" style="stroke:#181818;stroke-width:0.5;" width="323.8965" x="151.7361" y="881.4336"/><text fill="#000000" font-family="sans-serif" font-size="12" lengthAdjust="spacing" textLength="303.8965" x="161.7361" y="902.5723">Update Location += direction.Normalize() * Speed</text><ellipse cx="313.6843" cy="946.4023" fill="none" rx="11" ry="11" style="stroke:#222222;stroke-width:1;"/><ellipse cx="313.6843" cy="946.4023" fill="#222222" rx="6" ry="6" style="stroke:#222222;stroke-width:1;"/><line style="stroke:#181818;stroke-width:1;" x1="313.6843" x2="313.6843" y1="30" y2="50"/><polygon fill="#181818" points="309.6843,40,313.6843,50,317.6843,40,313.6843,44" style="stroke:#181818;stroke-width:1;"/><line style="stroke:#181818;stroke-width:1;" x1="313.6843" x2="313.6843" y1="83.9688" y2="103.9688"/><polygon fill="#181818" points="309.6843,93.9688,313.6843,103.9688,317.6843,93.9688,313.6843,97.9688" style="stroke:#181818;stroke-width:1;"/><line style="stroke:#181818;stroke-width:1;" x1="313.6843" x2="313.6843" y1="230.3398" y2="254.7422"/><polygon fill="#181818" points="309.6843,244.7422,313.6843,254.7422,317.6843,244.7422,313.6843,248.7422" style="stroke:#181818;stroke-width:1;"/><line style="stroke:#181818;stroke-width:1;" x1="392.2644" x2="409.1707" y1="218.3398" y2="218.3398"/><polygon fill="#181818" points="405.1707,261.7266,409.1707,271.7266,413.1707,261.7266,409.1707,265.7266" style="stroke:#181818;stroke-width:1;"/><line style="stroke:#181818;stroke-width:1;" x1="409.1707" x2="409.1707" y1="218.3398" y2="320.7109"/><line style="stroke:#181818;stroke-width:1;" x1="409.1707" x2="325.6843" y1="320.7109" y2="320.7109"/><polygon fill="#181818" points="335.6843,316.7109,325.6843,320.7109,335.6843,324.7109,331.6843,320.7109" style="stroke:#181818;stroke-width:1;"/><line style="stroke:#181818;stroke-width:1;" x1="313.6843" x2="313.6843" y1="288.7109" y2="308.7109"/><polygon fill="#181818" points="309.6843,298.7109,313.6843,308.7109,317.6843,298.7109,313.6843,302.7109" style="stroke:#181818;stroke-width:1;"/><line style="stroke:#181818;stroke-width:1;" x1="313.6843" x2="313.6843" y1="181.9375" y2="206.3398"/><polygon fill="#181818" points="309.6843,196.3398,313.6843,206.3398,317.6843,196.3398,313.6843,200.3398" style="stroke:#181818;stroke-width:1;"/><line style="stroke:#181818;stroke-width:1;" x1="565.8313" x2="577.8313" y1="169.9375" y2="169.9375"/><polygon fill="#181818" points="573.8313,261.7266,577.8313,271.7266,581.8313,261.7266,577.8313,265.7266" style="stroke:#181818;stroke-width:1;"/><line style="stroke:#181818;stroke-width:1;" x1="577.8313" x2="577.8313" y1="169.9375" y2="364.7109"/><line style="stroke:#181818;stroke-width:1;" x1="577.8313" x2="325.6843" y1="364.7109" y2="364.7109"/><polygon fill="#181818" points="335.6843,360.7109,325.6843,364.7109,335.6843,368.7109,331.6843,364.7109" style="stroke:#181818;stroke-width:1;"/><line style="stroke:#181818;stroke-width:1;" x1="313.6843" x2="313.6843" y1="332.7109" y2="352.7109"/><polygon fill="#181818" points="309.6843,342.7109,313.6843,352.7109,317.6843,342.7109,313.6843,346.7109" style="stroke:#181818;stroke-width:1;"/><line style="stroke:#181818;stroke-width:1;" x1="313.6843" x2="313.6843" y1="137.9375" y2="157.9375"/><polygon fill="#181818" points="309.6843,147.9375,313.6843,157.9375,317.6843,147.9375,313.6843,151.9375" style="stroke:#181818;stroke-width:1;"/><line style="stroke:#181818;stroke-width:1;" x1="313.6843" x2="313.6843" y1="573.0938" y2="597.4961"/><polygon fill="#181818" points="309.6843,587.4961,313.6843,597.4961,317.6843,587.4961,313.6843,591.4961" style="stroke:#181818;stroke-width:1;"/><line style="stroke:#181818;stroke-width:1;" x1="390.7363" x2="407.5037" y1="561.0938" y2="561.0938"/><polygon fill="#181818" points="403.5037,604.4805,407.5037,614.4805,411.5037,604.4805,407.5037,608.4805" style="stroke:#181818;stroke-width:1;"/><line style="stroke:#181818;stroke-width:1;" x1="407.5037" x2="407.5037" y1="561.0938" y2="663.4648"/><line style="stroke:#181818;stroke-width:1;" x1="407.5037" x2="325.6843" y1="663.4648" y2="663.4648"/><polygon fill="#181818" points="335.6843,659.4648,325.6843,663.4648,335.6843,667.4648,331.6843,663.4648" style="stroke:#181818;stroke-width:1;"/><line style="stroke:#181818;stroke-width:1;" x1="313.6843" x2="313.6843" y1="631.4648" y2="651.4648"/><polygon fill="#181818" points="309.6843,641.4648,313.6843,651.4648,317.6843,641.4648,313.6843,645.4648" style="stroke:#181818;stroke-width:1;"/><line style="stroke:#181818;stroke-width:1;" x1="313.6843" x2="313.6843" y1="524.6914" y2="549.0938"/><polygon fill="#181818" points="309.6843,539.0938,313.6843,549.0938,317.6843,539.0938,313.6843,543.0938" style="stroke:#181818;stroke-width:1;"/><line style="stroke:#181818;stroke-width:1;" x1="607.3687" x2="619.3687" y1="511.8867" y2="511.8867"/><polygon fill="#181818" points="615.3687,604.0781,619.3687,614.0781,623.3687,604.0781,619.3687,608.0781" style="stroke:#181818;stroke-width:1;"/><line style="stroke:#181818;stroke-width:1;" x1="619.3687" x2="619.3687" y1="511.8867" y2="707.4648"/><line style="stroke:#181818;stroke-width:1;" x1="619.3687" x2="325.6843" y1="707.4648" y2="707.4648"/><polygon fill="#181818" points="335.6843,703.4648,325.6843,707.4648,335.6843,711.4648,331.6843,707.4648" style="stroke:#181818;stroke-width:1;"/><line style="stroke:#181818;stroke-width:1;" x1="313.6843" x2="313.6843" y1="675.4648" y2="695.4648"/><polygon fill="#181818" points="309.6843,685.4648,313.6843,695.4648,317.6843,685.4648,313.6843,689.4648" style="stroke:#181818;stroke-width:1;"/><line style="stroke:#181818;stroke-width:1;" x1="313.6843" x2="313.6843" y1="479.082" y2="499.082"/><polygon fill="#181818" points="309.6843,489.082,313.6843,499.082,317.6843,489.082,313.6843,493.082" style="stroke:#181818;stroke-width:1;"/><line style="stroke:#181818;stroke-width:1;" x1="313.6843" x2="313.6843" y1="420.7109" y2="445.1133"/><polygon fill="#181818" points="309.6843,435.1133,313.6843,445.1133,317.6843,435.1133,313.6843,439.1133" style="stroke:#181818;stroke-width:1;"/><line style="stroke:#181818;stroke-width:1;" x1="363.9104" x2="629.3687" y1="408.7109" y2="408.7109"/><polygon fill="#181818" points="625.3687,569.1914,629.3687,579.1914,633.3687,569.1914,629.3687,573.1914" style="stroke:#181818;stroke-width:1;"/><line style="stroke:#181818;stroke-width:1;" x1="629.3687" x2="629.3687" y1="408.7109" y2="751.4648"/><line style="stroke:#181818;stroke-width:1;" x1="629.3687" x2="325.6843" y1="751.4648" y2="751.4648"/><polygon fill="#181818" points="335.6843,747.4648,325.6843,751.4648,335.6843,755.4648,331.6843,751.4648" style="stroke:#181818;stroke-width:1;"/><line style="stroke:#181818;stroke-width:1;" x1="313.6843" x2="313.6843" y1="719.4648" y2="739.4648"/><polygon fill="#181818" points="309.6843,729.4648,313.6843,739.4648,317.6843,729.4648,313.6843,733.4648" style="stroke:#181818;stroke-width:1;"/><line style="stroke:#181818;stroke-width:1;" x1="313.6843" x2="313.6843" y1="376.7109" y2="396.7109"/><polygon fill="#181818" points="309.6843,386.7109,313.6843,396.7109,317.6843,386.7109,313.6843,390.7109" style="stroke:#181818;stroke-width:1;"/><line style="stroke:#181818;stroke-width:1;" x1="313.6843" x2="313.6843" y1="763.4648" y2="783.4648"/><polygon fill="#181818" points="309.6843,773.4648,313.6843,783.4648,317.6843,773.4648,313.6843,777.4648" style="stroke:#181818;stroke-width:1;"/><line style="stroke:#181818;stroke-width:1;" x1="313.6843" x2="313.6843" y1="861.4336" y2="881.4336"/><polygon fill="#181818" points="309.6843,871.4336,313.6843,881.4336,317.6843,871.4336,313.6843,875.4336" style="stroke:#181818;stroke-width:1;"/><line style="stroke:#181818;stroke-width:1;" x1="418.6687" x2="448.677" y1="849.4336" y2="849.4336"/><polygon fill="#181818" points="438.677,845.4336,448.677,849.4336,438.677,853.4336,442.677,849.4336" style="stroke:#181818;stroke-width:1;"/><line style="stroke:#181818;stroke-width:1;" x1="313.6843" x2="313.6843" y1="817.4336" y2="837.4336"/><polygon fill="#181818" points="309.6843,827.4336,313.6843,837.4336,317.6843,827.4336,313.6843,831.4336" style="stroke:#181818;stroke-width:1;"/><line style="stroke:#181818;stroke-width:1;" x1="313.6843" x2="313.6843" y1="915.4023" y2="935.4023"/><polygon fill="#181818" points="309.6843,925.4023,313.6843,935.4023,317.6843,925.4023,313.6843,929.4023" style="stroke:#181818;stroke-width:1;"/><!--SRC=[ZL9TIyCm57tlhxY-b5QnuEjg4Hao1PMngUZZNNEtHTga9DbqiX_lJR-sKHyCfKrkJaxEERtMeN51C7fGqaaiv0y1LrRa02qOL4ANKsrvJwkKKOuCEWAz9GE4-HhquXEayX_AdKq3kOIehbbu8dGGWblpd9yn6YMtsX3ieKLC2rJ7a7ioYmOImfqYizh1DPJutSnlOWQIWcX7DWw0HtVPbsG61M_IiimP2hcnGx0VepaRQ_rbNaNog7DipFbzKa8kW-PzRELMoHAB8UTeZDRLRh03GOGgJdjvqT1-2AXEtCQmxnNM-6H2xcLN4MGPO_jLo2HgHfNHOfDJ5DTCoQ0sOVtyUyxQituH_ns75yXQ_XtVC4A-uJJ1Gug3F3ci8jyKld-4DDmkV8WfMgvBE11vNJqaUUSck69VXyg7hmmbMgUh_hBNIlYREbAuo8u8dhKfwsRdmCvXNX69DF37Vm40]--></g></svg>