<svg xmlns="http://www.w3.org/2000/svg" xmlns:xlink="http://www.w3.org/1999/xlink" contentStyleType="text/css" data-diagram-type="CLASS" height="1005px" preserveAspectRatio="none" style="width:2173px;height:1005px;background:#FFFFFF;" version="1.1" viewBox="0 0 2173 1005" width="2173px" zoomAndPan="magnify"><defs/><g><!--class GameObject--><g id="elem_GameObject"><rect codeLine="6" fill="#F1F1F1" height="145.7813" id="GameObject" rx="2.5" ry="2.5" style="stroke:#181818;stroke-width:0.5;" width="422.0332" x="724.93" y="852.5"/><ellipse cx="888.0594" cy="868.5" fill="#ADD1B2" rx="11" ry="11" style="stroke:#181818;stroke-width:1;"/><path d="M891.0281,874.1406 Q890.45,874.4375 889.8094,874.5781 Q889.1688,874.7344 888.4656,874.7344 Q885.9656,874.7344 884.6375,873.0938 Q883.325,871.4375 883.325,868.3125 Q883.325,865.1875 884.6375,863.5313 Q885.9656,861.875 888.4656,861.875 Q889.1688,861.875 889.8094,862.0313 Q890.4656,862.1875 891.0281,862.4844 L891.0281,865.2031 Q890.4031,864.625 889.8094,864.3594 Q889.2156,864.0781 888.5906,864.0781 Q887.2469,864.0781 886.5594,865.1563 Q885.8719,866.2188 885.8719,868.3125 Q885.8719,870.4063 886.5594,871.4844 Q887.2469,872.5469 888.5906,872.5469 Q889.2156,872.5469 889.8094,872.2813 Q890.4031,872 891.0281,871.4219 L891.0281,874.1406 Z " fill="#000000"/><text fill="#000000" font-family="sans-serif" font-size="14" lengthAdjust="spacing" textLength="87.2744" x="908.5594" y="873.3467">GameObject</text><line style="stroke:#181818;stroke-width:0.5;" x1="725.93" x2="1145.9632" y1="884.5" y2="884.5"/><ellipse cx="735.93" cy="898.1484" fill="none" rx="3" ry="3" style="stroke:#038048;stroke-width:1;"/><text fill="#000000" font-family="sans-serif" font-size="14" lengthAdjust="spacing" textLength="99.1689" x="744.93" y="901.4951">Point Location</text><ellipse cx="735.93" cy="914.4453" fill="none" rx="3" ry="3" style="stroke:#038048;stroke-width:1;"/><text fill="#000000" font-family="sans-serif" font-size="14" lengthAdjust="spacing" textLength="58.2422" x="744.93" y="917.792">int Ticks</text><line style="stroke:#181818;stroke-width:0.5;" x1="725.93" x2="1145.9632" y1="925.0938" y2="925.0938"/><ellipse cx="735.93" cy="938.7422" fill="#84BE84" rx="3" ry="3" style="stroke:#038048;stroke-width:1;"/><text fill="#000000" font-family="sans-serif" font-size="14" lengthAdjust="spacing" textLength="193.457" x="744.93" y="942.0889">GameObject(Point location)</text><ellipse cx="735.93" cy="955.0391" fill="#84BE84" rx="3" ry="3" style="stroke:#038048;stroke-width:1;"/><text fill="#000000" font-family="sans-serif" font-size="14" font-style="italic" lengthAdjust="spacing" textLength="396.0332" x="744.93" y="958.3857">Tick(ObservableCollection&lt;GameObject&gt; gameObjects)</text><ellipse cx="735.93" cy="971.3359" fill="#84BE84" rx="3" ry="3" style="stroke:#038048;stroke-width:1;"/><text fill="#000000" font-family="sans-serif" font-size="14" lengthAdjust="spacing" textLength="193.457" x="744.93" y="974.6826">GameObject(Point location)</text><ellipse cx="735.93" cy="987.6328" fill="#84BE84" rx="3" ry="3" style="stroke:#038048;stroke-width:1;"/><text fill="#000000" font-family="sans-serif" font-size="14" font-style="italic" lengthAdjust="spacing" textLength="396.0332" x="744.93" y="990.9795">Tick(ObservableCollection&lt;GameObject&gt; gameObjects)</text></g><!--class Waste--><g id="elem_Waste"><rect codeLine="13" fill="#F1F1F1" height="64.2969" id="Waste" rx="2.5" ry="2.5" style="stroke:#181818;stroke-width:0.5;" width="176.001" x="330.95" y="703.76"/><ellipse cx="392.7913" cy="719.76" fill="#ADD1B2" rx="11" ry="11" style="stroke:#181818;stroke-width:1;"/><path d="M395.7601,725.4006 Q395.1819,725.6975 394.5413,725.8381 Q393.9007,725.9944 393.1976,725.9944 Q390.6976,725.9944 389.3694,724.3538 Q388.0569,722.6975 388.0569,719.5725 Q388.0569,716.4475 389.3694,714.7913 Q390.6976,713.135 393.1976,713.135 Q393.9007,713.135 394.5413,713.2913 Q395.1976,713.4475 395.7601,713.7444 L395.7601,716.4631 Q395.1351,715.885 394.5413,715.6194 Q393.9476,715.3381 393.3226,715.3381 Q391.9788,715.3381 391.2913,716.4163 Q390.6038,717.4788 390.6038,719.5725 Q390.6038,721.6663 391.2913,722.7444 Q391.9788,723.8069 393.3226,723.8069 Q393.9476,723.8069 394.5413,723.5413 Q395.1351,723.26 395.7601,722.6819 L395.7601,725.4006 Z " fill="#000000"/><text fill="#000000" font-family="sans-serif" font-size="14" lengthAdjust="spacing" textLength="43.8184" x="413.2913" y="724.6067">Waste</text><line style="stroke:#181818;stroke-width:0.5;" x1="331.95" x2="505.951" y1="735.76" y2="735.76"/><line style="stroke:#181818;stroke-width:0.5;" x1="331.95" x2="505.951" y1="743.76" y2="743.76"/><ellipse cx="341.95" cy="757.4084" fill="#84BE84" rx="3" ry="3" style="stroke:#038048;stroke-width:1;"/><text fill="#000000" font-family="sans-serif" font-size="14" lengthAdjust="spacing" textLength="150.001" x="350.95" y="760.7551">Waste(Point location)</text></g><!--class LifeForm--><g id="elem_LifeForm"><rect codeLine="17" fill="#F1F1F1" height="113.1875" id="LifeForm" rx="2.5" ry="2.5" style="stroke:#181818;stroke-width:0.5;" width="349.9756" x="541.96" y="679.31"/><ellipse cx="682.0762" cy="695.31" fill="#ADD1B2" rx="11" ry="11" style="stroke:#181818;stroke-width:1;"/><path d="M685.045,700.9506 Q684.4668,701.2475 683.8262,701.3881 Q683.1856,701.5444 682.4825,701.5444 Q679.9825,701.5444 678.6543,699.9038 Q677.3418,698.2475 677.3418,695.1225 Q677.3418,691.9975 678.6543,690.3413 Q679.9825,688.685 682.4825,688.685 Q683.1856,688.685 683.8262,688.8413 Q684.4825,688.9975 685.045,689.2944 L685.045,692.0131 Q684.42,691.435 683.8262,691.1694 Q683.2325,690.8881 682.6075,690.8881 Q681.2637,690.8881 680.5762,691.9663 Q679.8887,693.0288 679.8887,695.1225 Q679.8887,697.2163 680.5762,698.2944 Q681.2637,699.3569 682.6075,699.3569 Q683.2325,699.3569 683.8262,699.0913 Q684.42,698.81 685.045,698.2319 L685.045,700.9506 Z " fill="#000000"/><text fill="#000000" font-family="sans-serif" font-size="14" lengthAdjust="spacing" textLength="61.2432" x="702.5762" y="700.1567">LifeForm</text><line style="stroke:#181818;stroke-width:0.5;" x1="542.96" x2="890.9356" y1="711.31" y2="711.31"/><ellipse cx="552.96" cy="724.9584" fill="none" rx="3" ry="3" style="stroke:#038048;stroke-width:1;"/><text fill="#000000" font-family="sans-serif" font-size="14" lengthAdjust="spacing" textLength="68.6738" x="561.96" y="728.3051">int Health</text><ellipse cx="552.96" cy="741.2553" fill="none" rx="3" ry="3" style="stroke:#038048;stroke-width:1;"/><text fill="#000000" font-family="sans-serif" font-size="14" lengthAdjust="spacing" textLength="71.9619" x="561.96" y="744.602">int Energy</text><line style="stroke:#181818;stroke-width:0.5;" x1="542.96" x2="890.9356" y1="751.9038" y2="751.9038"/><ellipse cx="552.96" cy="765.5522" fill="#84BE84" rx="3" ry="3" style="stroke:#038048;stroke-width:1;"/><text fill="#000000" font-family="sans-serif" font-size="14" lengthAdjust="spacing" textLength="323.9756" x="561.96" y="768.8989">LifeForm(Point location, int health, int energy)</text><ellipse cx="552.96" cy="781.8491" fill="#84BE84" rx="3" ry="3" style="stroke:#038048;stroke-width:1;"/><text fill="#000000" font-family="sans-serif" font-size="14" lengthAdjust="spacing" textLength="235.0332" x="561.96" y="785.1957">void decreaseEnergy(int amount)</text></g><!--class Plant--><g id="elem_Plant"><rect codeLine="24" fill="#F1F1F1" height="194.6719" id="Plant" rx="2.5" ry="2.5" style="stroke:#181818;stroke-width:0.5;" width="569.8945" x="7" y="310.56"/><ellipse cx="270.0605" cy="326.56" fill="#ADD1B2" rx="11" ry="11" style="stroke:#181818;stroke-width:1;"/><path d="M273.0293,332.2006 Q272.4512,332.4975 271.8105,332.6381 Q271.1699,332.7944 270.4668,332.7944 Q267.9668,332.7944 266.6387,331.1537 Q265.3262,329.4975 265.3262,326.3725 Q265.3262,323.2475 266.6387,321.5912 Q267.9668,319.935 270.4668,319.935 Q271.1699,319.935 271.8105,320.0912 Q272.4668,320.2475 273.0293,320.5444 L273.0293,323.2631 Q272.4043,322.685 271.8105,322.4194 Q271.2168,322.1381 270.5918,322.1381 Q269.248,322.1381 268.5605,323.2162 Q267.873,324.2787 267.873,326.3725 Q267.873,328.4662 268.5605,329.5444 Q269.248,330.6069 270.5918,330.6069 Q271.2168,330.6069 271.8105,330.3412 Q272.4043,330.06 273.0293,329.4819 L273.0293,332.2006 Z " fill="#000000"/><text fill="#000000" font-family="sans-serif" font-size="14" lengthAdjust="spacing" textLength="35.2734" x="290.5605" y="331.4067">Plant</text><line style="stroke:#181818;stroke-width:0.5;" x1="8" x2="575.8945" y1="342.56" y2="342.56"/><ellipse cx="18" cy="356.2084" fill="none" rx="3" ry="3" style="stroke:#038048;stroke-width:1;"/><text fill="#000000" font-family="sans-serif" font-size="14" lengthAdjust="spacing" textLength="115.5" x="27" y="359.5551">float RootRadius</text><ellipse cx="18" cy="372.5053" fill="none" rx="3" ry="3" style="stroke:#038048;stroke-width:1;"/><text fill="#000000" font-family="sans-serif" font-size="14" lengthAdjust="spacing" textLength="118.1523" x="27" y="375.852">float SeedRadius</text><ellipse cx="18" cy="388.8022" fill="none" rx="3" ry="3" style="stroke:#038048;stroke-width:1;"/><text fill="#000000" font-family="sans-serif" font-size="14" lengthAdjust="spacing" textLength="156.0713" x="27" y="392.1489">float RootRenderDelta</text><ellipse cx="18" cy="405.0991" fill="none" rx="3" ry="3" style="stroke:#038048;stroke-width:1;"/><text fill="#000000" font-family="sans-serif" font-size="14" lengthAdjust="spacing" textLength="159.7764" x="27" y="408.4457">float SeedDenderDelta</text><line style="stroke:#181818;stroke-width:0.5;" x1="8" x2="575.8945" y1="415.7475" y2="415.7475"/><ellipse cx="18" cy="429.3959" fill="#84BE84" rx="3" ry="3" style="stroke:#038048;stroke-width:1;"/><text fill="#000000" font-family="sans-serif" font-size="14" lengthAdjust="spacing" textLength="543.8945" x="27" y="432.7426">Plant(Point location, int health, int energy, float rootRadius, float seedRadius)</text><ellipse cx="18" cy="445.6928" fill="#84BE84" rx="3" ry="3" style="stroke:#038048;stroke-width:1;"/><text fill="#000000" font-family="sans-serif" font-size="14" lengthAdjust="spacing" textLength="432.0723" x="27" y="449.0395">void Tick(ObservableCollection&lt;GameObject&gt; GameObjects)</text><ellipse cx="18" cy="461.9897" fill="#84BE84" rx="3" ry="3" style="stroke:#038048;stroke-width:1;"/><text fill="#000000" font-family="sans-serif" font-size="14" lengthAdjust="spacing" textLength="435.3125" x="27" y="465.3364">void Reproduce(ObservableCollection&lt;GameObject&gt; objects)</text><rect fill="#F24D5C" height="6" style="stroke:#C82930;stroke-width:1;" width="6" x="15" y="475.2866"/><text fill="#000000" font-family="sans-serif" font-size="14" lengthAdjust="spacing" textLength="79.6592" x="27" y="481.6332">void grow()</text><ellipse cx="18" cy="494.5834" fill="#84BE84" rx="3" ry="3" style="stroke:#038048;stroke-width:1;"/><text fill="#000000" font-family="sans-serif" font-size="14" lengthAdjust="spacing" textLength="382.375" x="27" y="497.9301">void eat(ObservableCollection&lt;GameObject&gt; objects)</text></g><!--class Animal--><g id="elem_Animal"><rect codeLine="36" fill="#F1F1F1" height="422.8281" id="Animal" rx="2.5" ry="2.5" style="stroke:#181818;stroke-width:0.5;" width="1060.0996" x="611.9" y="196.48"/><ellipse cx="1113.4767" cy="212.48" fill="#ADD1B2" rx="11" ry="11" style="stroke:#181818;stroke-width:1;"/><path d="M1116.4454,218.1206 Q1115.8673,218.4175 1115.2267,218.5581 Q1114.586,218.7144 1113.8829,218.7144 Q1111.3829,218.7144 1110.0548,217.0738 Q1108.7423,215.4175 1108.7423,212.2925 Q1108.7423,209.1675 1110.0548,207.5113 Q1111.3829,205.855 1113.8829,205.855 Q1114.586,205.855 1115.2267,206.0113 Q1115.8829,206.1675 1116.4454,206.4644 L1116.4454,209.1831 Q1115.8204,208.605 1115.2267,208.3394 Q1114.6329,208.0581 1114.0079,208.0581 Q1112.6642,208.0581 1111.9767,209.1363 Q1111.2892,210.1988 1111.2892,212.2925 Q1111.2892,214.3863 1111.9767,215.4644 Q1112.6642,216.5269 1114.0079,216.5269 Q1114.6329,216.5269 1115.2267,216.2613 Q1115.8204,215.98 1116.4454,215.4019 L1116.4454,218.1206 Z " fill="#000000"/><text fill="#000000" font-family="sans-serif" font-size="14" lengthAdjust="spacing" textLength="48.4463" x="1133.9767" y="217.3267">Animal</text><line style="stroke:#181818;stroke-width:0.5;" x1="612.9" x2="1670.9996" y1="228.48" y2="228.48"/><ellipse cx="622.9" cy="242.1284" fill="none" rx="3" ry="3" style="stroke:#038048;stroke-width:1;"/><text fill="#000000" font-family="sans-serif" font-size="14" lengthAdjust="spacing" textLength="112.041" x="631.9" y="245.4751">int VisionRadius</text><ellipse cx="622.9" cy="258.4253" fill="none" rx="3" ry="3" style="stroke:#038048;stroke-width:1;"/><text fill="#000000" font-family="sans-serif" font-size="14" lengthAdjust="spacing" textLength="124.4209" x="631.9" y="261.772">int ContactRadius</text><ellipse cx="622.9" cy="274.7222" fill="none" rx="3" ry="3" style="stroke:#038048;stroke-width:1;"/><text fill="#000000" font-family="sans-serif" font-size="14" lengthAdjust="spacing" textLength="107.6318" x="631.9" y="278.0689">Gender Gender</text><ellipse cx="622.9" cy="291.0191" fill="none" rx="3" ry="3" style="stroke:#038048;stroke-width:1;"/><text fill="#000000" font-family="sans-serif" font-size="14" lengthAdjust="spacing" textLength="151.2178" x="631.9" y="294.3657">int ReproductionTime</text><ellipse cx="622.9" cy="307.3159" fill="none" rx="3" ry="3" style="stroke:#038048;stroke-width:1;"/><text fill="#000000" font-family="sans-serif" font-size="14" lengthAdjust="spacing" textLength="66.5889" x="631.9" y="310.6626">int Speed</text><ellipse cx="622.9" cy="323.6128" fill="none" rx="3" ry="3" style="stroke:#038048;stroke-width:1;"/><text fill="#000000" font-family="sans-serif" font-size="14" lengthAdjust="spacing" textLength="89.1748" x="631.9" y="326.9595">int NextBirth</text><ellipse cx="622.9" cy="339.9097" fill="none" rx="3" ry="3" style="stroke:#038048;stroke-width:1;"/><text fill="#000000" font-family="sans-serif" font-size="14" lengthAdjust="spacing" textLength="97.8701" x="631.9" y="343.2564">bool Pregnant</text><rect fill="none" height="6" style="stroke:#C82930;stroke-width:1;" width="6" x="619.9" y="353.2066"/><text fill="#000000" font-family="sans-serif" font-size="14" lengthAdjust="spacing" textLength="149.0166" x="631.9" y="359.5532">Point randomPosition</text><polygon fill="none" points="622.9,367.5034,626.9,371.5034,622.9,375.5034,618.9,371.5034" style="stroke:#B38D22;stroke-width:1;"/><text fill="#000000" font-family="sans-serif" font-size="14" lengthAdjust="spacing" textLength="118.5146" x="631.9" y="375.8501">string soundPath</text><rect fill="none" height="6" style="stroke:#C82930;stroke-width:1;" width="6" x="619.9" y="385.8003"/><text fill="#000000" font-family="sans-serif" font-size="14" lengthAdjust="spacing" textLength="151.0537" x="631.9" y="392.147">string foodSoundPath</text><rect fill="none" height="6" style="stroke:#C82930;stroke-width:1;" width="6" x="619.9" y="402.0972"/><text fill="#000000" font-family="sans-serif" font-size="14" lengthAdjust="spacing" textLength="134.5928" x="631.9" y="408.4439">SoundPlayer sound</text><rect fill="none" height="6" style="stroke:#C82930;stroke-width:1;" width="6" x="619.9" y="418.3941"/><text fill="#000000" font-family="sans-serif" font-size="14" lengthAdjust="spacing" textLength="167.1318" x="631.9" y="424.7407">SoundPlayer foodSound</text><rect fill="none" height="6" style="stroke:#C82930;stroke-width:1;" width="6" x="619.9" y="434.6909"/><text fill="#000000" font-family="sans-serif" font-size="14" lengthAdjust="spacing" textLength="68.4756" x="631.9" y="441.0376">Random r</text><line style="stroke:#181818;stroke-width:0.5;" x1="612.9" x2="1670.9996" y1="448.3394" y2="448.3394"/><ellipse cx="622.9" cy="461.9878" fill="#84BE84" rx="3" ry="3" style="stroke:#038048;stroke-width:1;"/><text fill="#000000" font-family="sans-serif" font-size="14" lengthAdjust="spacing" textLength="1034.0996" x="631.9" y="465.3345">Animal(Point location, int speed, int health, int energy, int visionRadius, int contactRadius, Gender gender, int reproductionTime, string soundPath)</text><ellipse cx="622.9" cy="478.2847" fill="#84BE84" rx="3" ry="3" style="stroke:#038048;stroke-width:1;"/><text fill="#000000" font-family="sans-serif" font-size="14" lengthAdjust="spacing" textLength="93.6523" x="631.9" y="481.6314">Waste Poop()</text><ellipse cx="622.9" cy="494.5816" fill="#84BE84" rx="3" ry="3" style="stroke:#038048;stroke-width:1;"/><text fill="#000000" font-family="sans-serif" font-size="14" font-style="italic" lengthAdjust="spacing" textLength="382.375" x="631.9" y="497.9282">void eat(ObservableCollection&lt;GameObject&gt; objects)</text><ellipse cx="622.9" cy="510.8784" fill="#84BE84" rx="3" ry="3" style="stroke:#038048;stroke-width:1;"/><text fill="#000000" font-family="sans-serif" font-size="14" lengthAdjust="spacing" textLength="148.1279" x="631.9" y="514.2251">bool CanReproduce()</text><ellipse cx="622.9" cy="527.1753" fill="#84BE84" rx="3" ry="3" style="stroke:#038048;stroke-width:1;"/><text fill="#000000" font-family="sans-serif" font-size="14" lengthAdjust="spacing" textLength="118.7266" x="631.9" y="530.522">void playSound()</text><ellipse cx="622.9" cy="543.4722" fill="#84BE84" rx="3" ry="3" style="stroke:#038048;stroke-width:1;"/><text fill="#000000" font-family="sans-serif" font-size="14" lengthAdjust="spacing" textLength="141.6406" x="631.9" y="546.8189">void playEatSound()</text><ellipse cx="622.9" cy="559.7691" fill="#84BE84" rx="3" ry="3" style="stroke:#038048;stroke-width:1;"/><text fill="#000000" font-family="sans-serif" font-size="14" lengthAdjust="spacing" textLength="397.2363" x="631.9" y="563.1157">void Move(ObservableCollection&lt;GameObject&gt; objects)</text><ellipse cx="622.9" cy="576.0659" fill="#84BE84" rx="3" ry="3" style="stroke:#038048;stroke-width:1;"/><text fill="#000000" font-family="sans-serif" font-size="14" lengthAdjust="spacing" textLength="421.1553" x="631.9" y="579.4126">void HaveSxx(ObservableCollection&lt;GameObject&gt; objects)</text><ellipse cx="622.9" cy="592.3628" fill="#84BE84" rx="3" ry="3" style="stroke:#038048;stroke-width:1;"/><text fill="#000000" font-family="sans-serif" font-size="14" font-style="italic" lengthAdjust="spacing" textLength="129.0693" x="631.9" y="595.7095">Animal GiveBirth()</text><ellipse cx="622.9" cy="608.6597" fill="#84BE84" rx="3" ry="3" style="stroke:#038048;stroke-width:1;"/><text fill="#000000" font-family="sans-serif" font-size="14" lengthAdjust="spacing" textLength="387.9395" x="631.9" y="612.0064">void Tick(ObservableCollection&lt;GameObject&gt; objects)</text></g><!--class Meat--><g id="elem_Meat"><rect codeLine="62" fill="#F1F1F1" height="80.5938" id="Meat" rx="2.5" ry="2.5" style="stroke:#181818;stroke-width:0.5;" width="458.0723" x="926.91" y="695.61"/><ellipse cx="1134.3158" cy="711.61" fill="#ADD1B2" rx="11" ry="11" style="stroke:#181818;stroke-width:1;"/><path d="M1137.2845,717.2506 Q1136.7064,717.5475 1136.0658,717.6881 Q1135.4251,717.8444 1134.722,717.8444 Q1132.222,717.8444 1130.8939,716.2037 Q1129.5814,714.5475 1129.5814,711.4225 Q1129.5814,708.2975 1130.8939,706.6412 Q1132.222,704.985 1134.722,704.985 Q1135.4251,704.985 1136.0658,705.1412 Q1136.722,705.2975 1137.2845,705.5944 L1137.2845,708.3131 Q1136.6595,707.735 1136.0658,707.4694 Q1135.472,707.1881 1134.847,707.1881 Q1133.5033,707.1881 1132.8158,708.2662 Q1132.1283,709.3287 1132.1283,711.4225 Q1132.1283,713.5162 1132.8158,714.5944 Q1133.5033,715.6569 1134.847,715.6569 Q1135.472,715.6569 1136.0658,715.3912 Q1136.6595,715.11 1137.2845,714.5319 L1137.2845,717.2506 Z " fill="#000000"/><text fill="#000000" font-family="sans-serif" font-size="14" lengthAdjust="spacing" textLength="34.7607" x="1154.8158" y="716.4567">Meat</text><line style="stroke:#181818;stroke-width:0.5;" x1="927.91" x2="1383.9823" y1="727.61" y2="727.61"/><line style="stroke:#181818;stroke-width:0.5;" x1="927.91" x2="1383.9823" y1="735.61" y2="735.61"/><ellipse cx="937.91" cy="749.2584" fill="#84BE84" rx="3" ry="3" style="stroke:#038048;stroke-width:1;"/><text fill="#000000" font-family="sans-serif" font-size="14" lengthAdjust="spacing" textLength="140.9434" x="946.91" y="752.6051">Meat(Point location)</text><ellipse cx="937.91" cy="765.5553" fill="#84BE84" rx="3" ry="3" style="stroke:#038048;stroke-width:1;"/><text fill="#000000" font-family="sans-serif" font-size="14" lengthAdjust="spacing" textLength="432.0723" x="946.91" y="768.902">void Tick(ObservableCollection&lt;GameObject&gt; GameObjects)</text></g><!--class EntityCounter--><g id="elem_EntityCounter"><rect codeLine="67" fill="#F1F1F1" height="96.8906" id="EntityCounter" rx="2.5" ry="2.5" style="stroke:#181818;stroke-width:0.5;" width="458.0723" x="1419.91" y="687.46"/><ellipse cx="1596.2874" cy="703.46" fill="#ADD1B2" rx="11" ry="11" style="stroke:#181818;stroke-width:1;"/><path d="M1599.2562,709.1006 Q1598.6781,709.3975 1598.0374,709.5381 Q1597.3968,709.6944 1596.6937,709.6944 Q1594.1937,709.6944 1592.8656,708.0538 Q1591.5531,706.3975 1591.5531,703.2725 Q1591.5531,700.1475 1592.8656,698.4913 Q1594.1937,696.835 1596.6937,696.835 Q1597.3968,696.835 1598.0374,696.9913 Q1598.6937,697.1475 1599.2562,697.4444 L1599.2562,700.1631 Q1598.6312,699.585 1598.0374,699.3194 Q1597.4437,699.0381 1596.8187,699.0381 Q1595.4749,699.0381 1594.7874,700.1163 Q1594.0999,701.1788 1594.0999,703.2725 Q1594.0999,705.3663 1594.7874,706.4444 Q1595.4749,707.5069 1596.8187,707.5069 Q1597.4437,707.5069 1598.0374,707.2413 Q1598.6312,706.96 1599.2562,706.3819 L1599.2562,709.1006 Z " fill="#000000"/><text fill="#000000" font-family="sans-serif" font-size="14" lengthAdjust="spacing" textLength="96.8174" x="1616.7874" y="708.3067">EntityCounter</text><line style="stroke:#181818;stroke-width:0.5;" x1="1420.91" x2="1876.9823" y1="719.46" y2="719.46"/><ellipse cx="1430.91" cy="733.1084" fill="none" rx="3" ry="3" style="stroke:#038048;stroke-width:1;"/><text fill="#000000" font-family="sans-serif" font-size="14" lengthAdjust="spacing" textLength="109.874" x="1439.91" y="736.4551">int ObjectCount</text><line style="stroke:#181818;stroke-width:0.5;" x1="1420.91" x2="1876.9823" y1="743.7569" y2="743.7569"/><ellipse cx="1430.91" cy="757.4053" fill="#84BE84" rx="3" ry="3" style="stroke:#038048;stroke-width:1;"/><text fill="#000000" font-family="sans-serif" font-size="14" lengthAdjust="spacing" textLength="107.7412" x="1439.91" y="760.752">EntityCounter()</text><ellipse cx="1430.91" cy="773.7022" fill="#84BE84" rx="3" ry="3" style="stroke:#038048;stroke-width:1;"/><text fill="#000000" font-family="sans-serif" font-size="14" lengthAdjust="spacing" textLength="432.0723" x="1439.91" y="777.0489">void Tick(ObservableCollection&lt;GameObject&gt; GameObjects)</text></g><!--class Carnivore--><g id="elem_Carnivore"><rect codeLine="73" fill="#F1F1F1" height="129.4844" id="Carnivore" rx="2.5" ry="2.5" style="stroke:#181818;stroke-width:0.5;" width="1005.8496" x="119.02" y="7"/><ellipse cx="583.6484" cy="23" fill="#ADD1B2" rx="11" ry="11" style="stroke:#181818;stroke-width:1;"/><path d="M586.6172,28.6406 Q586.039,28.9375 585.3984,29.0781 Q584.7578,29.2344 584.0547,29.2344 Q581.5547,29.2344 580.2265,27.5938 Q578.914,25.9375 578.914,22.8125 Q578.914,19.6875 580.2265,18.0313 Q581.5547,16.375 584.0547,16.375 Q584.7578,16.375 585.3984,16.5313 Q586.0547,16.6875 586.6172,16.9844 L586.6172,19.7031 Q585.9922,19.125 585.3984,18.8594 Q584.8047,18.5781 584.1797,18.5781 Q582.8359,18.5781 582.1484,19.6563 Q581.4609,20.7188 581.4609,22.8125 Q581.4609,24.9063 582.1484,25.9844 Q582.8359,27.0469 584.1797,27.0469 Q584.8047,27.0469 585.3984,26.7813 Q585.9922,26.5 586.6172,25.9219 L586.6172,28.6406 Z " fill="#000000"/><text fill="#000000" font-family="sans-serif" font-size="14" lengthAdjust="spacing" textLength="68.0928" x="604.1484" y="27.8467">Carnivore</text><line style="stroke:#181818;stroke-width:0.5;" x1="120.02" x2="1123.8696" y1="39" y2="39"/><rect fill="none" height="6" style="stroke:#C82930;stroke-width:1;" width="6" x="127.02" y="49.6484"/><text fill="#000000" font-family="sans-serif" font-size="14" lengthAdjust="spacing" textLength="152.6465" x="139.02" y="55.9951">int meatFoodIncrease</text><line style="stroke:#181818;stroke-width:0.5;" x1="120.02" x2="1123.8696" y1="63.2969" y2="63.2969"/><ellipse cx="130.02" cy="76.9453" fill="#84BE84" rx="3" ry="3" style="stroke:#038048;stroke-width:1;"/><text fill="#000000" font-family="sans-serif" font-size="14" lengthAdjust="spacing" textLength="979.8496" x="139.02" y="80.292">Carnivore(Point location, int health, int energy, int visionRadius, int contactRadius, Gender gender, int reproductionTime, string soundPath)</text><ellipse cx="130.02" cy="93.2422" fill="#84BE84" rx="3" ry="3" style="stroke:#038048;stroke-width:1;"/><text fill="#000000" font-family="sans-serif" font-size="14" lengthAdjust="spacing" textLength="382.375" x="139.02" y="96.5889">void eat(ObservableCollection&lt;GameObject&gt; objects)</text><ellipse cx="130.02" cy="109.5391" fill="#84BE84" rx="3" ry="3" style="stroke:#038048;stroke-width:1;"/><text fill="#000000" font-family="sans-serif" font-size="14" lengthAdjust="spacing" textLength="387.9395" x="139.02" y="112.8857">void Tick(ObservableCollection&lt;GameObject&gt; objects)</text><ellipse cx="130.02" cy="125.8359" fill="#84BE84" rx="3" ry="3" style="stroke:#038048;stroke-width:1;"/><text fill="#000000" font-family="sans-serif" font-size="14" lengthAdjust="spacing" textLength="129.0693" x="139.02" y="129.1826">Animal GiveBirth()</text></g><!--class Herbivore--><g id="elem_Herbivore"><rect codeLine="81" fill="#F1F1F1" height="113.1875" id="Herbivore" rx="2.5" ry="2.5" style="stroke:#181818;stroke-width:0.5;" width="1006.6494" x="1159.62" y="15.15"/><ellipse cx="1624.2484" cy="31.15" fill="#ADD1B2" rx="11" ry="11" style="stroke:#181818;stroke-width:1;"/><path d="M1627.2172,36.7906 Q1626.639,37.0875 1625.9984,37.2281 Q1625.3578,37.3844 1624.6547,37.3844 Q1622.1547,37.3844 1620.8265,35.7437 Q1619.514,34.0875 1619.514,30.9625 Q1619.514,27.8375 1620.8265,26.1812 Q1622.1547,24.525 1624.6547,24.525 Q1625.3578,24.525 1625.9984,24.6812 Q1626.6547,24.8375 1627.2172,25.1344 L1627.2172,27.8531 Q1626.5922,27.275 1625.9984,27.0094 Q1625.4047,26.7281 1624.7797,26.7281 Q1623.4359,26.7281 1622.7484,27.8062 Q1622.0609,28.8687 1622.0609,30.9625 Q1622.0609,33.0562 1622.7484,34.1344 Q1623.4359,35.1969 1624.7797,35.1969 Q1625.4047,35.1969 1625.9984,34.9312 Q1626.5922,34.65 1627.2172,34.0719 L1627.2172,36.7906 Z " fill="#000000"/><text fill="#000000" font-family="sans-serif" font-size="14" lengthAdjust="spacing" textLength="68.8926" x="1644.7484" y="35.9967">Herbivore</text><line style="stroke:#181818;stroke-width:0.5;" x1="1160.62" x2="2165.2694" y1="47.15" y2="47.15"/><line style="stroke:#181818;stroke-width:0.5;" x1="1160.62" x2="2165.2694" y1="55.15" y2="55.15"/><ellipse cx="1170.62" cy="68.7984" fill="#84BE84" rx="3" ry="3" style="stroke:#038048;stroke-width:1;"/><text fill="#000000" font-family="sans-serif" font-size="14" lengthAdjust="spacing" textLength="980.6494" x="1179.62" y="72.1451">Herbivore(Point location, int health, int energy, int visionRadius, int contactRadius, Gender gender, int reproductionTime, string soundPath)</text><ellipse cx="1170.62" cy="85.0953" fill="#84BE84" rx="3" ry="3" style="stroke:#038048;stroke-width:1;"/><text fill="#000000" font-family="sans-serif" font-size="14" lengthAdjust="spacing" textLength="382.375" x="1179.62" y="88.442">void eat(ObservableCollection&lt;GameObject&gt; objects)</text><ellipse cx="1170.62" cy="101.3922" fill="#84BE84" rx="3" ry="3" style="stroke:#038048;stroke-width:1;"/><text fill="#000000" font-family="sans-serif" font-size="14" lengthAdjust="spacing" textLength="387.9395" x="1179.62" y="104.7389">void Tick(ObservableCollection&lt;GameObject&gt; objects)</text><ellipse cx="1170.62" cy="117.6891" fill="#84BE84" rx="3" ry="3" style="stroke:#038048;stroke-width:1;"/><text fill="#000000" font-family="sans-serif" font-size="14" lengthAdjust="spacing" textLength="129.0693" x="1179.62" y="121.0357">Animal GiveBirth()</text></g><!--reverse link Waste to GameObject--><g id="link_Waste_GameObject"><path codeLine="88" d="M490.6746,776.8419 C506.6246,785.2219 508.27,785.51 524.95,792.5 C588.62,819.18 659.69,843.74 724.59,864.24 " fill="none" id="Waste-backto-GameObject" style="stroke:#181818;stroke-width:1;"/><polygon fill="none" points="474.74,768.47,487.884,782.1534,493.4652,771.5304,474.74,768.47" style="stroke:#181818;stroke-width:1;"/></g><!--reverse link LifeForm to GameObject--><g id="link_LifeForm_GameObject"><path codeLine="89" d="M796.0337,804.6059 C817.7137,823.1659 828.48,832.39 851.39,852 " fill="none" id="LifeForm-backto-GameObject" style="stroke:#181818;stroke-width:1;"/><polygon fill="none" points="782.36,792.9,792.1318,809.1638,799.9357,800.048,782.36,792.9" style="stroke:#181818;stroke-width:1;"/></g><!--reverse link Plant to LifeForm--><g id="link_Plant_LifeForm"><path codeLine="90" d="M432.3031,516.5642 C505.9731,573.0642 582.05,631.43 644.02,678.96 " fill="none" id="Plant-backto-LifeForm" style="stroke:#181818;stroke-width:1;"/><polygon fill="none" points="418.02,505.61,428.6517,521.3252,435.9545,511.8031,418.02,505.61" style="stroke:#181818;stroke-width:1;"/></g><!--reverse link Animal to LifeForm--><g id="link_Animal_LifeForm"><path codeLine="91" d="M852.8066,630.6937 C824.6666,652.2737 812.42,661.67 789.71,679.09 " fill="none" id="Animal-backto-LifeForm" style="stroke:#181818;stroke-width:1;"/><polygon fill="none" points="867.09,619.74,849.1553,625.9325,856.4578,635.4548,867.09,619.74" style="stroke:#181818;stroke-width:1;"/></g><!--reverse link Meat to GameObject--><g id="link_Meat_GameObject"><path codeLine="92" d="M1095.5881,788.343 C1069.8581,810.263 1050.81,826.5 1020.73,852.14 " fill="none" id="Meat-backto-GameObject" style="stroke:#181818;stroke-width:1;"/><polygon fill="none" points="1109.29,776.67,1091.6971,783.7757,1099.4791,792.9103,1109.29,776.67" style="stroke:#181818;stroke-width:1;"/></g><!--reverse link EntityCounter to GameObject--><g id="link_EntityCounter_GameObject"><path codeLine="93" d="M1449.3117,789.3971 C1351.8317,815.0271 1248.72,842.15 1147.16,868.85 " fill="none" id="EntityCounter-backto-GameObject" style="stroke:#181818;stroke-width:1;"/><polygon fill="none" points="1466.72,784.82,1447.786,783.5943,1450.8374,795.1999,1466.72,784.82" style="stroke:#181818;stroke-width:1;"/></g><!--reverse link Carnivore to Animal--><g id="link_Carnivore_Animal"><path codeLine="94" d="M737.0425,146.7017 C764.5525,164.3817 780.83,174.84 813.83,196.05 " fill="none" id="Carnivore-backto-Animal" style="stroke:#181818;stroke-width:1;"/><polygon fill="none" points="721.9,136.97,733.7986,151.7492,740.2864,141.6542,721.9,136.97" style="stroke:#181818;stroke-width:1;"/></g><!--reverse link Herbivore to Animal--><g id="link_Herbivore_Animal"><path codeLine="95" d="M1560.5896,138.3893 C1530.0996,157.9493 1508.97,171.5 1470.56,196.13 " fill="none" id="Herbivore-backto-Animal" style="stroke:#181818;stroke-width:1;"/><polygon fill="none" points="1575.74,128.67,1557.3498,133.3392,1563.8294,143.4395,1575.74,128.67" style="stroke:#181818;stroke-width:1;"/></g><!--SRC=[xLLDZzem4BtxLrZg9QkGVx2grB8iLDhjHh1gpquoPDqcDh9D2gBxtsjx4fC0gm9gU-efavVvyfitJbunhUcKrV2KVOFSq1s9zszHAhamj98vCroA6nBlMAQDOhbvfSyy_nuzPHfKmx8AnhAgR8XrkzqdU4_BOEiRyaf8Vg8WLdbegv3OlRdi-f_qyfLf0wuDj8xg1CS7leHxgUeTTZW3LfaNj2S2LBabSUToa6H4tTkB3q0RV80zH2DvGGl85J0Dc2Po3goMQs5wrTEA2MDBBol939rBQUQiu6lT8Gk0OeXu7n05g3ke3EixtlLXd_dCZaSKawXGlqDqgD-TwhoXJFj3mS0vh9GirZdyFbfsaOcFB9Ny4NLfW9aB4WIYFmXUiugsK_x2jGtfY7N8M0fZHTT1KqybnGTwTFsxOi-y1aGNAyiGcfzXOpvovTIJILdHL44fx118WbDGJ1IoJgNcVY7UMPbpKL9j9L6ap8ObBRAKibZiKJGhjhKDUUSX5Bn9ClSLg6qOZtjo_Dfr_BOIdDtqw44axzCpQdcXfN-WXpgWPqGFpsSdY5kPIhboywIzNRzYjiZoc8cziZgHh2mrdfC1Cc5c23xAvX8rOj2CDR3OR2w9wvsprU6KD-2r4bssLyV2VhIaMLMxn_5bUkt6XkmJORZPZjsjPUVTRW-wUP340u_eJzGSCoLu8nNiIEBArVPezrRadmJUfoGE7cVVRtzLrTTezvgPnoV44rYRWSfQrk9W_-V7yeENpktF9Ea9ZdG_zQCF_iU9QF0XRUO3r2tTKVnmPGw_1kdY5ynBmi3ww2y0]--></g></svg>