<svg xmlns="http://www.w3.org/2000/svg" xmlns:xlink="http://www.w3.org/1999/xlink" contentStyleType="text/css" data-diagram-type="SEQUENCE" height="508px" preserveAspectRatio="none" style="width:1081px;height:508px;background:#FFFFFF;" version="1.1" viewBox="0 0 1081 508" width="1081px" zoomAndPan="magnify"><defs/><g><rect fill="none" height="402.5938" style="stroke:#000000;stroke-width:1.5;" width="1065.0508" x="10" y="53.2969"/><line style="stroke:#181818;stroke-width:0.5;stroke-dasharray:5.0,5.0;" x1="109" x2="109" y1="36.2969" y2="472.8906"/><line style="stroke:#181818;stroke-width:0.5;stroke-dasharray:5.0,5.0;" x1="455.8789" x2="455.8789" y1="36.2969" y2="472.8906"/><line style="stroke:#181818;stroke-width:0.5;stroke-dasharray:5.0,5.0;" x1="764.5928" x2="764.5928" y1="36.2969" y2="472.8906"/><line style="stroke:#181818;stroke-width:0.5;stroke-dasharray:5.0,5.0;" x1="908.8271" x2="908.8271" y1="36.2969" y2="472.8906"/><rect fill="#E2E2F0" height="30.2969" rx="2.5" ry="2.5" style="stroke:#181818;stroke-width:0.5;" width="178.4932" x="20" y="5"/><text fill="#000000" font-family="sans-serif" font-size="14" lengthAdjust="spacing" textLength="164.4932" x="27" y="24.9951">MainWindowViewModel</text><rect fill="#E2E2F0" height="30.2969" rx="2.5" ry="2.5" style="stroke:#181818;stroke-width:0.5;" width="178.4932" x="20" y="471.8906"/><text fill="#000000" font-family="sans-serif" font-size="14" lengthAdjust="spacing" textLength="164.4932" x="27" y="491.8857">MainWindowViewModel</text><rect fill="#E2E2F0" height="30.2969" rx="2.5" ry="2.5" style="stroke:#181818;stroke-width:0.5;" width="128.4063" x="391.8789" y="5"/><text fill="#000000" font-family="sans-serif" font-size="14" lengthAdjust="spacing" textLength="114.4063" x="398.8789" y="24.9951">Animal:LifeForm</text><rect fill="#E2E2F0" height="30.2969" rx="2.5" ry="2.5" style="stroke:#181818;stroke-width:0.5;" width="128.4063" x="391.8789" y="471.8906"/><text fill="#000000" font-family="sans-serif" font-size="14" lengthAdjust="spacing" textLength="114.4063" x="398.8789" y="491.8857">Animal:LifeForm</text><rect fill="#E2E2F0" height="30.2969" rx="2.5" ry="2.5" style="stroke:#181818;stroke-width:0.5;" width="167.2344" x="681.5928" y="5"/><text fill="#000000" font-family="sans-serif" font-size="14" lengthAdjust="spacing" textLength="153.2344" x="688.5928" y="24.9951">LifeForm:GameObject</text><rect fill="#E2E2F0" height="30.2969" rx="2.5" ry="2.5" style="stroke:#181818;stroke-width:0.5;" width="167.2344" x="681.5928" y="471.8906"/><text fill="#000000" font-family="sans-serif" font-size="14" lengthAdjust="spacing" textLength="153.2344" x="688.5928" y="491.8857">LifeForm:GameObject</text><rect fill="#E2E2F0" height="30.2969" rx="2.5" ry="2.5" style="stroke:#181818;stroke-width:0.5;" width="101.2744" x="858.8271" y="5"/><text fill="#000000" font-family="sans-serif" font-size="14" lengthAdjust="spacing" textLength="87.2744" x="865.8271" y="24.9951">GameObject</text><rect fill="#E2E2F0" height="30.2969" rx="2.5" ry="2.5" style="stroke:#181818;stroke-width:0.5;" width="101.2744" x="858.8271" y="471.8906"/><text fill="#000000" font-family="sans-serif" font-size="14" lengthAdjust="spacing" textLength="87.2744" x="865.8271" y="491.8857">GameObject</text><path d="M10,53.2969 L86.624,53.2969 L86.624,60.4297 L76.624,70.4297 L10,70.4297 L10,53.2969 " fill="#EEEEEE" style="stroke:#000000;stroke-width:1.5;"/><rect fill="none" height="402.5938" style="stroke:#000000;stroke-width:1.5;" width="1065.0508" x="10" y="53.2969"/><text fill="#000000" font-family="sans-serif" font-size="13" font-weight="bold" lengthAdjust="spacing" textLength="31.624" x="25" y="66.3638">loop</text><text fill="#000000" font-family="sans-serif" font-size="11" font-weight="bold" lengthAdjust="spacing" textLength="140.3252" x="101.624" y="65.5073">[for each GameObject]</text><polygon fill="#181818" points="444.082,87.5625,454.082,91.5625,444.082,95.5625,448.082,91.5625" style="stroke:#181818;stroke-width:1;"/><line style="stroke:#181818;stroke-width:1;" x1="109.2466" x2="450.082" y1="91.5625" y2="91.5625"/><text fill="#000000" font-family="sans-serif" font-size="13" lengthAdjust="spacing" textLength="26.2285" x="116.2466" y="86.4966">Tick</text><polygon fill="#181818" points="897.4644,116.6953,907.4644,120.6953,897.4644,124.6953,901.4644,120.6953" style="stroke:#181818;stroke-width:1;"/><line style="stroke:#181818;stroke-width:1;" x1="456.082" x2="903.4644" y1="120.6953" y2="120.6953"/><text fill="#000000" font-family="sans-serif" font-size="13" lengthAdjust="spacing" textLength="26.2285" x="463.082" y="115.6294">Tick</text><line style="stroke:#181818;stroke-width:1;" x1="909.4644" x2="951.4644" y1="149.8281" y2="149.8281"/><line style="stroke:#181818;stroke-width:1;" x1="951.4644" x2="951.4644" y1="149.8281" y2="162.8281"/><line style="stroke:#181818;stroke-width:1;" x1="910.4644" x2="951.4644" y1="162.8281" y2="162.8281"/><polygon fill="#181818" points="920.4644,158.8281,910.4644,162.8281,920.4644,166.8281,916.4644,162.8281" style="stroke:#181818;stroke-width:1;"/><text fill="#000000" font-family="sans-serif" font-size="13" lengthAdjust="spacing" textLength="146.5864" x="916.4644" y="144.7622">Increase Ticks counter</text><line style="stroke:#181818;stroke-width:1;" x1="456.082" x2="498.082" y1="191.9609" y2="191.9609"/><line style="stroke:#181818;stroke-width:1;" x1="498.082" x2="498.082" y1="191.9609" y2="204.9609"/><line style="stroke:#181818;stroke-width:1;" x1="457.082" x2="498.082" y1="204.9609" y2="204.9609"/><polygon fill="#181818" points="467.082,200.9609,457.082,204.9609,467.082,208.9609,463.082,204.9609" style="stroke:#181818;stroke-width:1;"/><text fill="#000000" font-family="sans-serif" font-size="13" lengthAdjust="spacing" textLength="34.8613" x="463.082" y="186.895">Move</text><line style="stroke:#181818;stroke-width:1;" x1="456.082" x2="498.082" y1="234.0938" y2="234.0938"/><line style="stroke:#181818;stroke-width:1;" x1="498.082" x2="498.082" y1="234.0938" y2="247.0938"/><line style="stroke:#181818;stroke-width:1;" x1="457.082" x2="498.082" y1="247.0938" y2="247.0938"/><polygon fill="#181818" points="467.082,243.0938,457.082,247.0938,467.082,251.0938,463.082,247.0938" style="stroke:#181818;stroke-width:1;"/><text fill="#000000" font-family="sans-serif" font-size="13" lengthAdjust="spacing" textLength="154.1274" x="463.082" y="229.0278">Check if I can give birth</text><polygon fill="#181818" points="120.2466,272.2266,110.2466,276.2266,120.2466,280.2266,116.2466,276.2266" style="stroke:#181818;stroke-width:1;"/><line style="stroke:#181818;stroke-width:1;" x1="114.2466" x2="455.082" y1="276.2266" y2="276.2266"/><text fill="#000000" font-family="sans-serif" font-size="13" lengthAdjust="spacing" textLength="187.7256" x="126.2466" y="271.1606">Add animal if I can give birth</text><line style="stroke:#181818;stroke-width:1;" x1="456.082" x2="498.082" y1="305.3594" y2="305.3594"/><line style="stroke:#181818;stroke-width:1;" x1="498.082" x2="498.082" y1="305.3594" y2="318.3594"/><line style="stroke:#181818;stroke-width:1;" x1="457.082" x2="498.082" y1="318.3594" y2="318.3594"/><polygon fill="#181818" points="467.082,314.3594,457.082,318.3594,467.082,322.3594,463.082,318.3594" style="stroke:#181818;stroke-width:1;"/><text fill="#000000" font-family="sans-serif" font-size="13" lengthAdjust="spacing" textLength="218.9243" x="463.082" y="300.2935">Check if I can eat (every 25 ticks)</text><polygon fill="#181818" points="120.2466,343.4922,110.2466,347.4922,120.2466,351.4922,116.2466,347.4922" style="stroke:#181818;stroke-width:1;"/><line style="stroke:#181818;stroke-width:1;" x1="114.2466" x2="455.082" y1="347.4922" y2="347.4922"/><text fill="#000000" font-family="sans-serif" font-size="13" lengthAdjust="spacing" textLength="322.8354" x="126.2466" y="342.4263">If not alive delete me and ad meat at my position</text><polygon fill="#181818" points="753.21,372.625,763.21,376.625,753.21,380.625,757.21,376.625" style="stroke:#181818;stroke-width:1;"/><line style="stroke:#181818;stroke-width:1;" x1="456.082" x2="759.21" y1="376.625" y2="376.625"/><text fill="#000000" font-family="sans-serif" font-size="13" lengthAdjust="spacing" textLength="241.7378" x="463.082" y="371.5591">Remove 1 energy point every 10 tick</text><line style="stroke:#181818;stroke-width:1;" x1="456.082" x2="498.082" y1="405.7578" y2="405.7578"/><line style="stroke:#181818;stroke-width:1;" x1="498.082" x2="498.082" y1="405.7578" y2="418.7578"/><line style="stroke:#181818;stroke-width:1;" x1="457.082" x2="498.082" y1="418.7578" y2="418.7578"/><polygon fill="#181818" points="467.082,414.7578,457.082,418.7578,467.082,422.7578,463.082,418.7578" style="stroke:#181818;stroke-width:1;"/><text fill="#000000" font-family="sans-serif" font-size="13" lengthAdjust="spacing" textLength="295.1279" x="463.082" y="400.6919">Define a new default position every 100 ticks</text><polygon fill="#181818" points="120.2466,443.8906,110.2466,447.8906,120.2466,451.8906,116.2466,447.8906" style="stroke:#181818;stroke-width:1;"/><line style="stroke:#181818;stroke-width:1;" x1="114.2466" x2="455.082" y1="447.8906" y2="447.8906"/><text fill="#000000" font-family="sans-serif" font-size="13" lengthAdjust="spacing" textLength="215.1919" x="126.2466" y="442.8247">Add a new waste every 150 ticks</text><!--SRC=[TP1FQy904CNl-HGFJ-sXK0jUSYY45aKm2ANeUTnCT3JP3PlLuBVlkF4lRM4FEypllJSp3VaWHXgo0VboaODQ378IknHRk6uXtEMku6gGD7Ta5h7CIarLEfEInyxNZyXi79bBCvrGpVFLbaruv2RpoDstA-SQbCw3oMnmwoHnm9TtP2c-nUoIJF-J-RbGerWYnTGQpzHoRBGmRcy3-oIBMktdxi2twcF3PWSfCOKXYxKS62lnOTCZCJH5LXIWkF3_w1zkJ05FV61_nDi8uJJFyuFlj8Hr0LITlFJG71WrQvJ65VfJlRxwYCQr4iJPNgtdJV75jMw28TYoNvyGqOlsQSFNc7ORx9DBiMeCovq6bRIlmjNqAkfLxU_LewoZLiSxiwCBoxRu0G00]--></g></svg>