<svg xmlns="http://www.w3.org/2000/svg" xmlns:xlink="http://www.w3.org/1999/xlink" contentStyleType="text/css" data-diagram-type="SEQUENCE" height="326px" preserveAspectRatio="none" style="width:459px;height:326px;background:#FFFFFF;" version="1.1" viewBox="0 0 459 326" width="459px" zoomAndPan="magnify"><defs/><g><rect fill="none" height="221.0625" style="stroke:#000000;stroke-width:1.5;" width="443.623" x="10" y="53.2969"/><line style="stroke:#181818;stroke-width:0.5;stroke-dasharray:5.0,5.0;" x1="48" x2="48" y1="36.2969" y2="291.3594"/><line style="stroke:#181818;stroke-width:0.5;stroke-dasharray:5.0,5.0;" x1="169.1338" x2="169.1338" y1="36.2969" y2="291.3594"/><line style="stroke:#181818;stroke-width:0.5;stroke-dasharray:5.0,5.0;" x1="290.1704" x2="290.1704" y1="36.2969" y2="291.3594"/><line style="stroke:#181818;stroke-width:0.5;stroke-dasharray:5.0,5.0;" x1="411.5566" x2="411.5566" y1="36.2969" y2="291.3594"/><rect fill="#E2E2F0" height="30.2969" rx="2.5" ry="2.5" style="stroke:#181818;stroke-width:0.5;" width="57.8867" x="20" y="5"/><text fill="#000000" font-family="sans-serif" font-size="14" lengthAdjust="spacing" textLength="43.8867" x="27" y="24.9951">Plante</text><rect fill="#E2E2F0" height="30.2969" rx="2.5" ry="2.5" style="stroke:#181818;stroke-width:0.5;" width="57.8867" x="20" y="290.3594"/><text fill="#000000" font-family="sans-serif" font-size="14" lengthAdjust="spacing" textLength="43.8867" x="27" y="310.3545">Plante</text><rect fill="#E2E2F0" height="30.2969" rx="2.5" ry="2.5" style="stroke:#181818;stroke-width:0.5;" width="82.8926" x="128.1338" y="5"/><text fill="#000000" font-family="sans-serif" font-size="14" lengthAdjust="spacing" textLength="68.8926" x="135.1338" y="24.9951">Herbivore</text><rect fill="#E2E2F0" height="30.2969" rx="2.5" ry="2.5" style="stroke:#181818;stroke-width:0.5;" width="82.8926" x="128.1338" y="290.3594"/><text fill="#000000" font-family="sans-serif" font-size="14" lengthAdjust="spacing" textLength="68.8926" x="135.1338" y="310.3545">Herbivore</text><rect fill="#E2E2F0" height="30.2969" rx="2.5" ry="2.5" style="stroke:#181818;stroke-width:0.5;" width="82.0928" x="249.1704" y="5"/><text fill="#000000" font-family="sans-serif" font-size="14" lengthAdjust="spacing" textLength="68.0928" x="256.1704" y="24.9951">Carnivore</text><rect fill="#E2E2F0" height="30.2969" rx="2.5" ry="2.5" style="stroke:#181818;stroke-width:0.5;" width="82.0928" x="249.1704" y="290.3594"/><text fill="#000000" font-family="sans-serif" font-size="14" lengthAdjust="spacing" textLength="68.0928" x="256.1704" y="310.3545">Carnivore</text><rect fill="#E2E2F0" height="30.2969" rx="2.5" ry="2.5" style="stroke:#181818;stroke-width:0.5;" width="64.0664" x="379.5566" y="5"/><text fill="#000000" font-family="sans-serif" font-size="14" lengthAdjust="spacing" textLength="50.0664" x="386.5566" y="24.9951">D&#233;chet</text><rect fill="#E2E2F0" height="30.2969" rx="2.5" ry="2.5" style="stroke:#181818;stroke-width:0.5;" width="64.0664" x="379.5566" y="290.3594"/><text fill="#000000" font-family="sans-serif" font-size="14" lengthAdjust="spacing" textLength="50.0664" x="386.5566" y="310.3545">D&#233;chet</text><path d="M10,53.2969 L86.624,53.2969 L86.624,60.4297 L76.624,70.4297 L10,70.4297 L10,53.2969 " fill="#EEEEEE" style="stroke:#000000;stroke-width:1.5;"/><rect fill="none" height="221.0625" style="stroke:#000000;stroke-width:1.5;" width="443.623" x="10" y="53.2969"/><text fill="#000000" font-family="sans-serif" font-size="13" font-weight="bold" lengthAdjust="spacing" textLength="31.624" x="25" y="66.3638">loop</text><text fill="#000000" font-family="sans-serif" font-size="11" font-weight="bold" lengthAdjust="spacing" textLength="84.4443" x="101.624" y="65.5073">[Cycle de vie]</text><line style="stroke:#181818;stroke-width:1;" x1="49.9434" x2="59.9434" y1="91.5625" y2="87.5625"/><line style="stroke:#181818;stroke-width:1;" x1="49.9434" x2="59.9434" y1="91.5625" y2="95.5625"/><line style="stroke:#181818;stroke-width:1;" x1="48.9434" x2="168.5801" y1="91.5625" y2="91.5625"/><text fill="#000000" font-family="sans-serif" font-size="13" lengthAdjust="spacing" textLength="45.1191" x="65.9434" y="86.4966">mange</text><line style="stroke:#181818;stroke-width:1;" x1="167.5801" x2="157.5801" y1="120.6953" y2="116.6953"/><line style="stroke:#181818;stroke-width:1;" x1="167.5801" x2="157.5801" y1="120.6953" y2="124.6953"/><line style="stroke:#181818;stroke-width:1;" x1="48.9434" x2="168.5801" y1="120.6953" y2="120.6953"/><text fill="#000000" font-family="sans-serif" font-size="13" lengthAdjust="spacing" textLength="96.6367" x="55.9434" y="115.6294">fournit &#233;nergie</text><line style="stroke:#181818;stroke-width:1;" x1="409.5898" x2="399.5898" y1="149.8281" y2="145.8281"/><line style="stroke:#181818;stroke-width:1;" x1="409.5898" x2="399.5898" y1="149.8281" y2="153.8281"/><line style="stroke:#181818;stroke-width:1;" x1="169.5801" x2="410.5898" y1="149.8281" y2="149.8281"/><text fill="#000000" font-family="sans-serif" font-size="13" lengthAdjust="spacing" textLength="97.373" x="176.5801" y="144.7622">produit D&#233;chet</text><line style="stroke:#181818;stroke-width:1;" x1="170.5801" x2="180.5801" y1="178.9609" y2="174.9609"/><line style="stroke:#181818;stroke-width:1;" x1="170.5801" x2="180.5801" y1="178.9609" y2="182.9609"/><line style="stroke:#181818;stroke-width:1;" x1="169.5801" x2="289.2168" y1="178.9609" y2="178.9609"/><text fill="#000000" font-family="sans-serif" font-size="13" lengthAdjust="spacing" textLength="45.1191" x="186.5801" y="173.895">mange</text><line style="stroke:#181818;stroke-width:1;" x1="288.2168" x2="278.2168" y1="208.0938" y2="204.0938"/><line style="stroke:#181818;stroke-width:1;" x1="288.2168" x2="278.2168" y1="208.0938" y2="212.0938"/><line style="stroke:#181818;stroke-width:1;" x1="169.5801" x2="289.2168" y1="208.0938" y2="208.0938"/><text fill="#000000" font-family="sans-serif" font-size="13" lengthAdjust="spacing" textLength="96.6367" x="176.5801" y="203.0278">fournit &#233;nergie</text><line style="stroke:#181818;stroke-width:1;" x1="409.5898" x2="399.5898" y1="237.2266" y2="233.2266"/><line style="stroke:#181818;stroke-width:1;" x1="409.5898" x2="399.5898" y1="237.2266" y2="241.2266"/><line style="stroke:#181818;stroke-width:1;" x1="290.2168" x2="410.5898" y1="237.2266" y2="237.2266"/><text fill="#000000" font-family="sans-serif" font-size="13" lengthAdjust="spacing" textLength="97.373" x="297.2168" y="232.1606">produit D&#233;chet</text><line style="stroke:#181818;stroke-width:1;" x1="49.9434" x2="59.9434" y1="266.3594" y2="262.3594"/><line style="stroke:#181818;stroke-width:1;" x1="49.9434" x2="59.9434" y1="266.3594" y2="270.3594"/><line style="stroke:#181818;stroke-width:1;" x1="48.9434" x2="410.5898" y1="266.3594" y2="266.3594"/><text fill="#000000" font-family="sans-serif" font-size="13" lengthAdjust="spacing" textLength="119.9834" x="65.9434" y="261.2935">fournit Nutriments</text><!--SRC=[XP3D3SCW38NlcS8BT04EkQI7dggkG8cR8X50hedKaJ975Yij2I7gdmz8-3q-F-CbiLRQIyjmCl742cBvedr0Ekl1qRlIIBAVbVqqgYjozHACSnwQkp88BSAWa_rP6RshwpHTG2zjjpfIDyhPAk3YGfpBC8qMgVk2cnC8yEJQeDT8Ypc7tyAtuqjYVl0ZGGdzcs2-5xilt6DWqZrQlgKVHDi-0000]--></g></svg>